# xmcd CD database file
# Copyright (C) 1996 Ti Kan
#
# Track frame offsets:
#  150
#  14510
#  28987
#  42365
#  56207
#  69145
#  82817
#  96480
#  111112
#  123102
#  137867
#  149945
#  161715
#  175185
#  189437
#  203292
#  217537
#  230670
#  244312
#  257920
#  268862
#  280282
#  293387
#  307347
#
# Disc length: 4274 seconds
#
# Revision: 2
# Processed by: cddbd v1.4b41PL1 Copyright (c) Steve Scherf et al.
# Submitted via: CDWizzard Release:4.12
#
DISCID=6b10b018
DTITLE=John Lee Hooker - The Legendary Modern Recordings:  1948 - 1954
DYEAR=1900
DGENRE=
TTITLE0=Boogie Chillen
TTITLE1=Sally Mae
TTITLE2=Hoogie Boogie
TTITLE3=Hobo Blues
TTITLE4=Weeping Willow Boogie
TTITLE5=Drifting From Door To Door
TTITLE6=Crawling Kingsnake
TTITLE7=Women In My Life
TTITLE8=Howlin' Wolf
TTITLE9=Playing The Races
TTITLE10=Let Your Daddy Ride
TTITLE11=Queen Bee
TTITLE12=Wednesday Evening
TTITLE13=I'm In The Mood
TTITLE14=Tease Me Baby
TTITLE15=Turn Over A New Leaf
TTITLE16=Rock House Boogie
TTITLE17=Too Much Boogie
TTITLE18=Need Somebody
TTITLE19=Gotta Boogie
TTITLE20=Jump Me One More Time
TTITLE21=Down Child
TTITLE22=Bad Boy
TTITLE23=Please Take Me Back
EXTD=
EXTT0=
EXTT1=
EXTT2=
EXTT3=
EXTT4=
EXTT5=
EXTT6=
EXTT7=
EXTT8=
EXTT9=
EXTT10=
EXTT11=
EXTT12=
EXTT13=
EXTT14=
EXTT15=
EXTT16=
EXTT17=
EXTT18=
EXTT19=
EXTT20=
EXTT21=
EXTT22=
EXTT23=
PLAYORDER=
